%TF.GenerationSoftware,KiCad,Pcbnew,10.0.1*%
%TF.CreationDate,2026-05-17T19:55:31+05:30*%
%TF.ProjectId,SerialFusion,53657269-616c-4467-9573-696f6e2e6b69,rev?*%
%TF.SameCoordinates,Original*%
%TF.FileFunction,Paste,Top*%
%TF.FilePolarity,Positive*%
%FSLAX46Y46*%
G04 Gerber Fmt 4.6, Leading zero omitted, Abs format (unit mm)*
G04 Created by KiCad (PCBNEW 10.0.1) date 2026-05-17 19:55:31*
%MOMM*%
%LPD*%
G01*
G04 APERTURE LIST*
G04 Aperture macros list*
%AMRoundRect*
0 Rectangle with rounded corners*
0 $1 Rounding radius*
0 $2 $3 $4 $5 $6 $7 $8 $9 X,Y pos of 4 corners*
0 Add a 4 corners polygon primitive as box body*
4,1,4,$2,$3,$4,$5,$6,$7,$8,$9,$2,$3,0*
0 Add four circle primitives for the rounded corners*
1,1,$1+$1,$2,$3*
1,1,$1+$1,$4,$5*
1,1,$1+$1,$6,$7*
1,1,$1+$1,$8,$9*
0 Add four rect primitives between the rounded corners*
20,1,$1+$1,$2,$3,$4,$5,0*
20,1,$1+$1,$4,$5,$6,$7,0*
20,1,$1+$1,$6,$7,$8,$9,0*
20,1,$1+$1,$8,$9,$2,$3,0*%
G04 Aperture macros list end*
%ADD10RoundRect,0.250000X-0.412500X-0.650000X0.412500X-0.650000X0.412500X0.650000X-0.412500X0.650000X0*%
%ADD11RoundRect,0.250000X-0.550000X-0.550000X0.550000X-0.550000X0.550000X0.550000X-0.550000X0.550000X0*%
%ADD12RoundRect,0.250000X-0.650000X0.412500X-0.650000X-0.412500X0.650000X-0.412500X0.650000X0.412500X0*%
%ADD13RoundRect,0.150000X-0.825000X-0.150000X0.825000X-0.150000X0.825000X0.150000X-0.825000X0.150000X0*%
%ADD14RoundRect,0.250000X0.412500X0.650000X-0.412500X0.650000X-0.412500X-0.650000X0.412500X-0.650000X0*%
%ADD15RoundRect,0.250000X-0.625000X0.400000X-0.625000X-0.400000X0.625000X-0.400000X0.625000X0.400000X0*%
%ADD16R,1.500000X1.500000*%
%ADD17RoundRect,0.250000X-0.400000X-0.625000X0.400000X-0.625000X0.400000X0.625000X-0.400000X0.625000X0*%
%ADD18RoundRect,0.250001X-0.462499X-0.624999X0.462499X-0.624999X0.462499X0.624999X-0.462499X0.624999X0*%
%ADD19RoundRect,0.250000X0.625000X-0.400000X0.625000X0.400000X-0.625000X0.400000X-0.625000X-0.400000X0*%
%ADD20RoundRect,0.150000X-0.512500X-0.150000X0.512500X-0.150000X0.512500X0.150000X-0.512500X0.150000X0*%
%ADD21RoundRect,0.150000X-1.050000X-0.150000X1.050000X-0.150000X1.050000X0.150000X-1.050000X0.150000X0*%
%ADD22RoundRect,0.250000X-0.595000X-1.080000X0.595000X-1.080000X0.595000X1.080000X-0.595000X1.080000X0*%
%ADD23RoundRect,0.150000X-0.687500X-0.150000X0.687500X-0.150000X0.687500X0.150000X-0.687500X0.150000X0*%
%ADD24RoundRect,0.250001X0.462499X0.624999X-0.462499X0.624999X-0.462499X-0.624999X0.462499X-0.624999X0*%
%ADD25RoundRect,0.250000X0.650000X-0.412500X0.650000X0.412500X-0.650000X0.412500X-0.650000X-0.412500X0*%
%ADD26RoundRect,0.150000X-0.587500X-0.150000X0.587500X-0.150000X0.587500X0.150000X-0.587500X0.150000X0*%
%ADD27RoundRect,0.150000X-0.425000X0.150000X-0.425000X-0.150000X0.425000X-0.150000X0.425000X0.150000X0*%
%ADD28RoundRect,0.075000X-0.500000X0.075000X-0.500000X-0.075000X0.500000X-0.075000X0.500000X0.075000X0*%
%ADD29O,2.100000X1.000000*%
%ADD30O,1.800000X1.000000*%
%ADD31RoundRect,0.250000X0.400000X0.625000X-0.400000X0.625000X-0.400000X-0.625000X0.400000X-0.625000X0*%
G04 APERTURE END LIST*
D10*
%TO.C,C7*%
X58937500Y-80500000D03*
X62062500Y-80500000D03*
%TD*%
D11*
%TO.C,U6*%
X69190000Y-96730000D03*
X69190000Y-99270000D03*
X76810000Y-99270000D03*
X76810000Y-96730000D03*
%TD*%
D12*
%TO.C,C1*%
X65000000Y-69937500D03*
X65000000Y-73062500D03*
%TD*%
%TO.C,C6*%
X87000000Y-69937500D03*
X87000000Y-73062500D03*
%TD*%
D13*
%TO.C,U9*%
X112525000Y-107095000D03*
X112525000Y-108365000D03*
X112525000Y-109635000D03*
X112525000Y-110905000D03*
X117475000Y-110905000D03*
X117475000Y-109635000D03*
X117475000Y-108365000D03*
X117475000Y-107095000D03*
%TD*%
D14*
%TO.C,C12*%
X109625000Y-76500000D03*
X106500000Y-76500000D03*
%TD*%
D15*
%TO.C,R10*%
X85000000Y-96450000D03*
X85000000Y-99550000D03*
%TD*%
%TO.C,R11*%
X87500000Y-89450000D03*
X87500000Y-92550000D03*
%TD*%
D12*
%TO.C,C8*%
X68000000Y-82437500D03*
X68000000Y-85562500D03*
%TD*%
D10*
%TO.C,C4*%
X50937500Y-80000000D03*
X54062500Y-80000000D03*
%TD*%
D16*
%TO.C,SW1*%
X90100000Y-101500000D03*
X97900000Y-101500000D03*
%TD*%
D17*
%TO.C,R5*%
X58950000Y-78000000D03*
X62050000Y-78000000D03*
%TD*%
D18*
%TO.C,D1*%
X87512500Y-75500000D03*
X90487500Y-75500000D03*
%TD*%
D17*
%TO.C,R17*%
X113450000Y-105000000D03*
X116550000Y-105000000D03*
%TD*%
D16*
%TO.C,SW2*%
X90100000Y-106500000D03*
X97900000Y-106500000D03*
%TD*%
D17*
%TO.C,R7*%
X63450000Y-96500000D03*
X66550000Y-96500000D03*
%TD*%
D19*
%TO.C,R18*%
X120500000Y-110550000D03*
X120500000Y-107450000D03*
%TD*%
D20*
%TO.C,U2*%
X51362500Y-82050000D03*
X51362500Y-83000000D03*
X51362500Y-83950000D03*
X53637500Y-83950000D03*
X53637500Y-83000000D03*
X53637500Y-82050000D03*
%TD*%
D21*
%TO.C,U8*%
X104812500Y-78555000D03*
X104812500Y-79825000D03*
X104812500Y-81095000D03*
X104812500Y-82365000D03*
X104812500Y-83635000D03*
X104812500Y-84905000D03*
X104812500Y-86175000D03*
X104812500Y-87445000D03*
X111312500Y-87445000D03*
X111312500Y-86175000D03*
X111312500Y-84905000D03*
X111312500Y-83635000D03*
X111312500Y-82365000D03*
X111312500Y-81095000D03*
X111312500Y-79825000D03*
X111312500Y-78555000D03*
%TD*%
D11*
%TO.C,U5*%
X69190000Y-89730000D03*
X69190000Y-92270000D03*
X76810000Y-92270000D03*
X76810000Y-89730000D03*
%TD*%
D13*
%TO.C,U7*%
X70525000Y-82095000D03*
X70525000Y-83365000D03*
X70525000Y-84635000D03*
X70525000Y-85905000D03*
X75475000Y-85905000D03*
X75475000Y-84635000D03*
X75475000Y-83365000D03*
X75475000Y-82095000D03*
%TD*%
D10*
%TO.C,C2*%
X44375000Y-94500000D03*
X47500000Y-94500000D03*
%TD*%
D22*
%TO.C,U4*%
X61000000Y-84500000D03*
D23*
X58362500Y-82500000D03*
X58362500Y-83500000D03*
X58362500Y-84500000D03*
X58362500Y-85500000D03*
X58362500Y-86500000D03*
X63637500Y-86500000D03*
X63637500Y-85500000D03*
X63637500Y-84500000D03*
X63637500Y-83500000D03*
X63637500Y-82500000D03*
%TD*%
D24*
%TO.C,D2*%
X67487500Y-78000000D03*
X64512500Y-78000000D03*
%TD*%
D19*
%TO.C,R20*%
X123000000Y-110550000D03*
X123000000Y-107450000D03*
%TD*%
D15*
%TO.C,R4*%
X89500000Y-69950000D03*
X89500000Y-73050000D03*
%TD*%
D17*
%TO.C,R15*%
X107950000Y-113000000D03*
X111050000Y-113000000D03*
%TD*%
D20*
%TO.C,U3*%
X82362500Y-71050000D03*
X82362500Y-72000000D03*
X82362500Y-72950000D03*
X84637500Y-72950000D03*
X84637500Y-71050000D03*
%TD*%
D12*
%TO.C,C9*%
X78000000Y-82437500D03*
X78000000Y-85562500D03*
%TD*%
%TO.C,C15*%
X114000000Y-78937500D03*
X114000000Y-82062500D03*
%TD*%
D17*
%TO.C,R6*%
X58950000Y-75500000D03*
X62050000Y-75500000D03*
%TD*%
D10*
%TO.C,C13*%
X113437500Y-113500000D03*
X116562500Y-113500000D03*
%TD*%
D25*
%TO.C,C3*%
X80000000Y-73062500D03*
X80000000Y-69937500D03*
%TD*%
D26*
%TO.C,Q2*%
X90062500Y-96550000D03*
X90062500Y-98450000D03*
X91937500Y-97500000D03*
%TD*%
%TO.C,Q3*%
X108062500Y-109050000D03*
X108062500Y-110950000D03*
X109937500Y-110000000D03*
%TD*%
D27*
%TO.C,J1*%
X48255000Y-79480000D03*
X48255000Y-80280000D03*
D28*
X48255000Y-81430000D03*
X48255000Y-82430000D03*
X48255000Y-82930000D03*
X48255000Y-83930000D03*
D27*
X48255000Y-85080000D03*
X48255000Y-85880000D03*
X48255000Y-85880000D03*
X48255000Y-85080000D03*
D28*
X48255000Y-84430000D03*
X48255000Y-83430000D03*
X48255000Y-81930000D03*
X48255000Y-80930000D03*
D27*
X48255000Y-80280000D03*
X48255000Y-79480000D03*
D29*
X47680000Y-78360000D03*
D30*
X43500000Y-78360000D03*
D29*
X47680000Y-87000000D03*
D30*
X43500000Y-87000000D03*
%TD*%
D17*
%TO.C,R2*%
X44950000Y-76000000D03*
X48050000Y-76000000D03*
%TD*%
D31*
%TO.C,R14*%
X82550000Y-96500000D03*
X79450000Y-96500000D03*
%TD*%
D15*
%TO.C,R9*%
X85000000Y-89450000D03*
X85000000Y-92550000D03*
%TD*%
D31*
%TO.C,R13*%
X82550000Y-89500000D03*
X79450000Y-89500000D03*
%TD*%
%TO.C,R22*%
X83500000Y-86000000D03*
X80400000Y-86000000D03*
%TD*%
D15*
%TO.C,R12*%
X87500000Y-96450000D03*
X87500000Y-99550000D03*
%TD*%
D12*
%TO.C,C10*%
X102062500Y-78437500D03*
X102062500Y-81562500D03*
%TD*%
D17*
%TO.C,R16*%
X113450000Y-102500000D03*
X116550000Y-102500000D03*
%TD*%
%TO.C,R3*%
X44450000Y-89500000D03*
X47550000Y-89500000D03*
%TD*%
D31*
%TO.C,R19*%
X125550000Y-101000000D03*
X122450000Y-101000000D03*
%TD*%
%TO.C,R1*%
X47487500Y-92000000D03*
X44387500Y-92000000D03*
%TD*%
D24*
%TO.C,D3*%
X67487500Y-75500000D03*
X64512500Y-75500000D03*
%TD*%
D26*
%TO.C,Q1*%
X90062500Y-90050000D03*
X90062500Y-91950000D03*
X91937500Y-91000000D03*
%TD*%
D25*
%TO.C,C14*%
X99562500Y-86562500D03*
X99562500Y-83437500D03*
%TD*%
D17*
%TO.C,R8*%
X63450000Y-89500000D03*
X66550000Y-89500000D03*
%TD*%
D31*
%TO.C,R21*%
X83500000Y-82500000D03*
X80400000Y-82500000D03*
%TD*%
D14*
%TO.C,C5*%
X85562500Y-75000000D03*
X82437500Y-75000000D03*
%TD*%
D12*
%TO.C,C11*%
X102062500Y-83437500D03*
X102062500Y-86562500D03*
%TD*%
M02*
