M48
; DRILL file KiCad 10.0.1 date 2026-05-17T19:55:35
; FORMAT={-:-/ absolute / metric / decimal}
; #@! TF.CreationDate,2026-05-17T19:55:35+05:30
; #@! TF.GenerationSoftware,Kicad,Pcbnew,10.0.1
; #@! TF.FileFunction,Plated,1,2,PTH
FMAT,2
METRIC
; #@! TA.AperFunction,Plated,PTH,ViaDrill
T1C0.300
; #@! TA.AperFunction,Plated,PTH,ViaDrill
T2C0.500
; #@! TA.AperFunction,Plated,PTH,ComponentDrill
T3C0.600
; #@! TA.AperFunction,Plated,PTH,ComponentDrill
T4C1.000
; #@! TA.AperFunction,Plated,PTH,ComponentDrill
T5C1.075
; #@! TA.AperFunction,Plated,PTH,ComponentDrill
T6C1.300
; #@! TA.AperFunction,Plated,PTH,ViaDrill
T7C3.000
; #@! TA.AperFunction,Plated,PTH,ComponentDrill
T8C3.200
%
G90
G05
T1
X77.0Y-78.5
X82.55Y-92.5
X85.0Y-94.5
X86.0Y-82.5
X86.0Y-86.0
X92.0Y-94.5
X92.5Y-93.5
X93.0Y-99.0
X93.5Y-78.5
X93.5Y-91.0
X93.5Y-102.5
X95.0Y-89.5
X95.5Y-109.0
X109.5Y-80.0
X109.5Y-89.5
X111.0Y-114.25
T2
X56.5Y-85.5
X65.5Y-84.5
X66.5Y-83.5
X67.0Y-92.5
X69.0Y-75.5
X69.0Y-78.0
T4
X97.46Y-92.0
X97.46Y-94.54
X97.46Y-97.08
X97.725Y-71.725
X97.725Y-74.265
X100.0Y-92.0
X100.0Y-94.54
X100.0Y-97.08
X100.265Y-71.725
X100.265Y-74.265
X118.66Y-75.96
X118.66Y-78.73
X118.66Y-81.5
X118.66Y-84.27
X118.66Y-87.04
X121.5Y-77.345
X121.5Y-80.115
X121.5Y-82.885
X121.5Y-85.655
X129.725Y-101.0
X132.265Y-101.0
T5
X68.892Y-72.343
X71.432Y-72.343
X73.972Y-72.343
X76.513Y-72.343
T6
X131.5Y-106.92
X131.5Y-112.0
T7
X44.5Y-68.0
X44.5Y-112.5
T8
X127.86Y-69.0
X127.86Y-94.0
T3
G00X43.9Y-78.36
M15
G01X43.1Y-78.36
M16
G05
G00X43.9Y-87.0
M15
G01X43.1Y-87.0
M16
G05
G00X48.23Y-78.36
M15
G01X47.13Y-78.36
M16
G05
G00X48.23Y-87.0
M15
G01X47.13Y-87.0
M16
G05
M30
